<svg xmlns="http://www.w3.org/2000/svg" xmlns:xlink="http://www.w3.org/1999/xlink" width="500" zoomAndPan="magnify" viewBox="0 0 375 374.999991" height="500" preserveAspectRatio="xMidYMid meet" version="1.0"><defs><g/></defs><g fill="#aaabab" fill-opacity="1"><g transform="translate(158.58304, 218.966002)"><g><path d="M 26.5625 0.84375 C 20.9375 0.84375 15.734375 -0.375 10.953125 -2.8125 C 6.179688 -5.25 2.296875 -8.710938 -0.703125 -13.203125 L 5.484375 -20.234375 C 10.910156 -12.179688 17.984375 -8.15625 26.703125 -8.15625 C 38.878906 -8.15625 44.96875 -15.367188 44.96875 -29.796875 L 44.96875 -89.375 L 9 -89.375 L 9 -98.375 L 55.234375 -98.375 L 55.234375 -30.21875 C 55.234375 -19.90625 52.816406 -12.148438 47.984375 -6.953125 C 43.160156 -1.753906 36.019531 0.84375 26.5625 0.84375 Z M 26.5625 0.84375 "/></g></g></g><g fill="#d3d0cb" fill-opacity="1"><g transform="translate(97.583838, 254.804045)"><g><path d="M 3.25 0.15625 C 2.53125 0.15625 1.867188 0.015625 1.265625 -0.265625 C 0.671875 -0.546875 0.179688 -0.941406 -0.203125 -1.453125 L 0.96875 -2.875 C 1.59375 -2.019531 2.335938 -1.59375 3.203125 -1.59375 C 4.359375 -1.59375 4.9375 -2.28125 4.9375 -3.65625 L 4.9375 -9.453125 L 0.953125 -9.453125 L 0.953125 -11.203125 L 7.03125 -11.203125 L 7.03125 -3.78125 C 7.03125 -2.46875 6.707031 -1.484375 6.0625 -0.828125 C 5.425781 -0.171875 4.488281 0.15625 3.25 0.15625 Z M 3.25 0.15625 "/></g></g></g><g fill="#d3d0cb" fill-opacity="1"><g transform="translate(112.813765, 254.804045)"><g><path d="M 9.4375 -5.828125 C 10.0625 -5.617188 10.550781 -5.273438 10.90625 -4.796875 C 11.269531 -4.328125 11.453125 -3.742188 11.453125 -3.046875 C 11.453125 -2.066406 11.078125 -1.3125 10.328125 -0.78125 C 9.585938 -0.257812 8.503906 0 7.078125 0 L 1.5 0 L 1.5 -11.203125 L 6.75 -11.203125 C 8.070312 -11.203125 9.085938 -10.941406 9.796875 -10.421875 C 10.515625 -9.898438 10.875 -9.1875 10.875 -8.28125 C 10.875 -7.726562 10.742188 -7.238281 10.484375 -6.8125 C 10.234375 -6.382812 9.882812 -6.054688 9.4375 -5.828125 Z M 3.578125 -9.5625 L 3.578125 -6.484375 L 6.53125 -6.484375 C 7.25 -6.484375 7.800781 -6.613281 8.1875 -6.875 C 8.582031 -7.132812 8.78125 -7.515625 8.78125 -8.015625 C 8.78125 -8.523438 8.582031 -8.910156 8.1875 -9.171875 C 7.800781 -9.429688 7.25 -9.5625 6.53125 -9.5625 Z M 6.9375 -1.625 C 8.550781 -1.625 9.359375 -2.164062 9.359375 -3.25 C 9.359375 -4.320312 8.550781 -4.859375 6.9375 -4.859375 L 3.578125 -4.859375 L 3.578125 -1.625 Z M 6.9375 -1.625 "/></g></g></g><g fill="#d3d0cb" fill-opacity="1"><g transform="translate(131.786801, 254.804045)"><g><path d="M 8.828125 0 L 6.546875 -3.28125 C 6.453125 -3.269531 6.304688 -3.265625 6.109375 -3.265625 L 3.578125 -3.265625 L 3.578125 0 L 1.5 0 L 1.5 -11.203125 L 6.109375 -11.203125 C 7.078125 -11.203125 7.921875 -11.039062 8.640625 -10.71875 C 9.367188 -10.394531 9.921875 -9.9375 10.296875 -9.34375 C 10.679688 -8.75 10.875 -8.039062 10.875 -7.21875 C 10.875 -6.375 10.664062 -5.644531 10.25 -5.03125 C 9.84375 -4.425781 9.257812 -3.976562 8.5 -3.6875 L 11.078125 0 Z M 8.78125 -7.21875 C 8.78125 -7.925781 8.546875 -8.472656 8.078125 -8.859375 C 7.609375 -9.242188 6.921875 -9.4375 6.015625 -9.4375 L 3.578125 -9.4375 L 3.578125 -4.96875 L 6.015625 -4.96875 C 6.921875 -4.96875 7.609375 -5.160156 8.078125 -5.546875 C 8.546875 -5.941406 8.78125 -6.5 8.78125 -7.21875 Z M 8.78125 -7.21875 "/></g></g></g><g fill="#d3d0cb" fill-opacity="1"><g transform="translate(150.279952, 254.804045)"><g><path d="M 1.5 -11.203125 L 3.578125 -11.203125 L 3.578125 0 L 1.5 0 Z M 1.5 -11.203125 "/></g></g></g><g fill="#d3d0cb" fill-opacity="1"><g transform="translate(162.182682, 254.804045)"><g><path d="M 9.15625 -5.734375 L 11.125 -5.734375 L 11.125 -1.265625 C 10.539062 -0.804688 9.863281 -0.453125 9.09375 -0.203125 C 8.332031 0.0351562 7.546875 0.15625 6.734375 0.15625 C 5.597656 0.15625 4.566406 -0.0859375 3.640625 -0.578125 C 2.722656 -1.078125 2.003906 -1.765625 1.484375 -2.640625 C 0.960938 -3.515625 0.703125 -4.5 0.703125 -5.59375 C 0.703125 -6.695312 0.960938 -7.6875 1.484375 -8.5625 C 2.003906 -9.4375 2.726562 -10.117188 3.65625 -10.609375 C 4.582031 -11.109375 5.617188 -11.359375 6.765625 -11.359375 C 7.703125 -11.359375 8.554688 -11.203125 9.328125 -10.890625 C 10.097656 -10.585938 10.742188 -10.132812 11.265625 -9.53125 L 9.953125 -8.25 C 9.097656 -9.101562 8.066406 -9.53125 6.859375 -9.53125 C 6.078125 -9.53125 5.378906 -9.363281 4.765625 -9.03125 C 4.148438 -8.707031 3.664062 -8.242188 3.3125 -7.640625 C 2.96875 -7.046875 2.796875 -6.363281 2.796875 -5.59375 C 2.796875 -4.851562 2.96875 -4.179688 3.3125 -3.578125 C 3.664062 -2.984375 4.148438 -2.515625 4.765625 -2.171875 C 5.378906 -1.828125 6.070312 -1.65625 6.84375 -1.65625 C 7.71875 -1.65625 8.488281 -1.847656 9.15625 -2.234375 Z M 9.15625 -5.734375 "/></g></g></g><g fill="#d3d0cb" fill-opacity="1"><g transform="translate(181.331673, 254.804045)"><g><path d="M 11.453125 -11.203125 L 11.453125 0 L 9.375 0 L 9.375 -4.796875 L 3.578125 -4.796875 L 3.578125 0 L 1.5 0 L 1.5 -11.203125 L 3.578125 -11.203125 L 3.578125 -6.578125 L 9.375 -6.578125 L 9.375 -11.203125 Z M 11.453125 -11.203125 "/></g></g></g><g fill="#d3d0cb" fill-opacity="1"><g transform="translate(201.088512, 254.804045)"><g><path d="M 3.78125 -9.4375 L 0.0625 -9.4375 L 0.0625 -11.203125 L 9.5625 -11.203125 L 9.5625 -9.4375 L 5.859375 -9.4375 L 5.859375 0 L 3.78125 0 Z M 3.78125 -9.4375 "/></g></g></g><g fill="#d3d0cb" fill-opacity="1"><g transform="translate(217.518153, 254.804045)"><g><path d="M 1.953125 0.109375 C 1.585938 0.109375 1.273438 -0.015625 1.015625 -0.265625 C 0.765625 -0.515625 0.640625 -0.832031 0.640625 -1.21875 C 0.640625 -1.613281 0.765625 -1.929688 1.015625 -2.171875 C 1.265625 -2.421875 1.578125 -2.546875 1.953125 -2.546875 C 2.328125 -2.546875 2.640625 -2.421875 2.890625 -2.171875 C 3.140625 -1.929688 3.265625 -1.613281 3.265625 -1.21875 C 3.265625 -0.832031 3.132812 -0.515625 2.875 -0.265625 C 2.625 -0.015625 2.316406 0.109375 1.953125 0.109375 Z M 1.953125 0.109375 "/></g></g></g><g fill="#d3d0cb" fill-opacity="1"><g transform="translate(228.22117, 254.804045)"><g><path d="M 1.5 -11.203125 L 6.40625 -11.203125 C 7.59375 -11.203125 8.648438 -10.96875 9.578125 -10.5 C 10.503906 -10.039062 11.222656 -9.382812 11.734375 -8.53125 C 12.253906 -7.6875 12.515625 -6.707031 12.515625 -5.59375 C 12.515625 -4.488281 12.253906 -3.507812 11.734375 -2.65625 C 11.222656 -1.8125 10.503906 -1.15625 9.578125 -0.6875 C 8.648438 -0.226562 7.59375 0 6.40625 0 L 1.5 0 Z M 6.296875 -1.765625 C 7.117188 -1.765625 7.84375 -1.921875 8.46875 -2.234375 C 9.09375 -2.546875 9.570312 -2.992188 9.90625 -3.578125 C 10.25 -4.160156 10.421875 -4.832031 10.421875 -5.59375 C 10.421875 -6.363281 10.25 -7.039062 9.90625 -7.625 C 9.570312 -8.207031 9.09375 -8.65625 8.46875 -8.96875 C 7.84375 -9.28125 7.117188 -9.4375 6.296875 -9.4375 L 3.578125 -9.4375 L 3.578125 -1.765625 Z M 6.296875 -1.765625 "/></g></g></g><g fill="#d3d0cb" fill-opacity="1"><g transform="translate(248.233944, 254.804045)"><g><path d="M 9.90625 -1.75 L 9.90625 0 L 1.5 0 L 1.5 -11.203125 L 9.6875 -11.203125 L 9.6875 -9.453125 L 3.578125 -9.453125 L 3.578125 -6.546875 L 8.984375 -6.546875 L 8.984375 -4.828125 L 3.578125 -4.828125 L 3.578125 -1.75 Z M 9.90625 -1.75 "/></g></g></g><g fill="#d3d0cb" fill-opacity="1"><g transform="translate(265.751323, 254.804045)"><g><path d="M 11.75 -11.203125 L 6.859375 0 L 4.8125 0 L -0.078125 -11.203125 L 2.171875 -11.203125 L 5.90625 -2.5625 L 9.65625 -11.203125 Z M 11.75 -11.203125 "/></g></g></g></svg>