<svg xmlns="http://www.w3.org/2000/svg" xmlns:xlink="http://www.w3.org/1999/xlink" width="500" zoomAndPan="magnify" viewBox="0 0 375 374.999991" height="500" preserveAspectRatio="xMidYMid meet" version="1.0"><defs><g/></defs><g fill="#000000" fill-opacity="1"><g transform="translate(77.36485, 194.428346)"><g><path d="M 3.984375 0.203125 C 3.109375 0.203125 2.300781 0.03125 1.5625 -0.3125 C 0.820312 -0.664062 0.21875 -1.15625 -0.25 -1.78125 L 1.1875 -3.53125 C 1.945312 -2.476562 2.859375 -1.953125 3.921875 -1.953125 C 5.335938 -1.953125 6.046875 -2.796875 6.046875 -4.484375 L 6.046875 -11.578125 L 1.171875 -11.578125 L 1.171875 -13.71875 L 8.609375 -13.71875 L 8.609375 -4.625 C 8.609375 -3.019531 8.210938 -1.8125 7.421875 -1 C 6.640625 -0.195312 5.492188 0.203125 3.984375 0.203125 Z M 3.984375 0.203125 "/></g></g></g><g fill="#000000" fill-opacity="1"><g transform="translate(96.020505, 194.428346)"><g><path d="M 11.5625 -7.125 C 12.320312 -6.882812 12.921875 -6.472656 13.359375 -5.890625 C 13.804688 -5.304688 14.03125 -4.582031 14.03125 -3.71875 C 14.03125 -2.53125 13.570312 -1.613281 12.65625 -0.96875 C 11.738281 -0.320312 10.40625 0 8.65625 0 L 1.84375 0 L 1.84375 -13.71875 L 8.265625 -13.71875 C 9.890625 -13.71875 11.140625 -13.398438 12.015625 -12.765625 C 12.890625 -12.128906 13.328125 -11.257812 13.328125 -10.15625 C 13.328125 -9.46875 13.171875 -8.863281 12.859375 -8.34375 C 12.546875 -7.820312 12.113281 -7.414062 11.5625 -7.125 Z M 4.390625 -11.71875 L 4.390625 -7.9375 L 8 -7.9375 C 8.882812 -7.9375 9.5625 -8.09375 10.03125 -8.40625 C 10.507812 -8.726562 10.75 -9.195312 10.75 -9.8125 C 10.75 -10.4375 10.507812 -10.910156 10.03125 -11.234375 C 9.5625 -11.554688 8.882812 -11.71875 8 -11.71875 Z M 8.5 -2 C 10.476562 -2 11.46875 -2.660156 11.46875 -3.984375 C 11.46875 -5.296875 10.476562 -5.953125 8.5 -5.953125 L 4.390625 -5.953125 L 4.390625 -2 Z M 8.5 -2 "/></g></g></g><g fill="#000000" fill-opacity="1"><g transform="translate(119.261087, 194.428346)"><g><path d="M 10.8125 0 L 8.015625 -4.015625 C 7.898438 -4.003906 7.722656 -4 7.484375 -4 L 4.390625 -4 L 4.390625 0 L 1.84375 0 L 1.84375 -13.71875 L 7.484375 -13.71875 C 8.671875 -13.71875 9.703125 -13.519531 10.578125 -13.125 C 11.460938 -12.738281 12.140625 -12.175781 12.609375 -11.4375 C 13.085938 -10.707031 13.328125 -9.84375 13.328125 -8.84375 C 13.328125 -7.800781 13.070312 -6.910156 12.5625 -6.171875 C 12.0625 -5.429688 11.34375 -4.875 10.40625 -4.5 L 13.5625 0 Z M 10.75 -8.84375 C 10.75 -9.71875 10.460938 -10.390625 9.890625 -10.859375 C 9.316406 -11.328125 8.476562 -11.5625 7.375 -11.5625 L 4.390625 -11.5625 L 4.390625 -6.09375 L 7.375 -6.09375 C 8.476562 -6.09375 9.316406 -6.332031 9.890625 -6.8125 C 10.460938 -7.289062 10.75 -7.96875 10.75 -8.84375 Z M 10.75 -8.84375 "/></g></g></g><g fill="#000000" fill-opacity="1"><g transform="translate(141.913855, 194.428346)"><g><path d="M 1.84375 -13.71875 L 4.390625 -13.71875 L 4.390625 0 L 1.84375 0 Z M 1.84375 -13.71875 "/></g></g></g><g fill="#000000" fill-opacity="1"><g transform="translate(156.494016, 194.428346)"><g><path d="M 11.203125 -7.015625 L 13.625 -7.015625 L 13.625 -1.546875 C 12.914062 -0.984375 12.085938 -0.550781 11.140625 -0.25 C 10.203125 0.0507812 9.238281 0.203125 8.25 0.203125 C 6.851562 0.203125 5.59375 -0.0976562 4.46875 -0.703125 C 3.34375 -1.316406 2.457031 -2.160156 1.8125 -3.234375 C 1.175781 -4.304688 0.859375 -5.515625 0.859375 -6.859375 C 0.859375 -8.203125 1.175781 -9.410156 1.8125 -10.484375 C 2.457031 -11.554688 3.34375 -12.394531 4.46875 -13 C 5.601562 -13.601562 6.875 -13.90625 8.28125 -13.90625 C 9.4375 -13.90625 10.484375 -13.71875 11.421875 -13.34375 C 12.359375 -12.96875 13.148438 -12.410156 13.796875 -11.671875 L 12.1875 -10.109375 C 11.144531 -11.148438 9.882812 -11.671875 8.40625 -11.671875 C 7.4375 -11.671875 6.578125 -11.46875 5.828125 -11.0625 C 5.078125 -10.664062 4.488281 -10.097656 4.0625 -9.359375 C 3.632812 -8.628906 3.421875 -7.796875 3.421875 -6.859375 C 3.421875 -5.941406 3.632812 -5.117188 4.0625 -4.390625 C 4.488281 -3.660156 5.078125 -3.082031 5.828125 -2.65625 C 6.578125 -2.238281 7.429688 -2.03125 8.390625 -2.03125 C 9.460938 -2.03125 10.398438 -2.269531 11.203125 -2.75 Z M 11.203125 -7.015625 "/></g></g></g><g fill="#000000" fill-opacity="1"><g transform="translate(179.95014, 194.428346)"><g><path d="M 14.03125 -13.71875 L 14.03125 0 L 11.484375 0 L 11.484375 -5.875 L 4.390625 -5.875 L 4.390625 0 L 1.84375 0 L 1.84375 -13.71875 L 4.390625 -13.71875 L 4.390625 -8.046875 L 11.484375 -8.046875 L 11.484375 -13.71875 Z M 14.03125 -13.71875 "/></g></g></g><g fill="#000000" fill-opacity="1"><g transform="translate(204.150811, 194.428346)"><g><path d="M 4.625 -11.5625 L 0.078125 -11.5625 L 0.078125 -13.71875 L 11.71875 -13.71875 L 11.71875 -11.5625 L 7.171875 -11.5625 L 7.171875 0 L 4.625 0 Z M 4.625 -11.5625 "/></g></g></g><g fill="#000000" fill-opacity="1"><g transform="translate(224.275988, 194.428346)"><g><path d="M 2.390625 0.140625 C 1.941406 0.140625 1.5625 -0.0078125 1.25 -0.3125 C 0.9375 -0.625 0.78125 -1.015625 0.78125 -1.484375 C 0.78125 -1.972656 0.929688 -2.363281 1.234375 -2.65625 C 1.546875 -2.957031 1.929688 -3.109375 2.390625 -3.109375 C 2.847656 -3.109375 3.226562 -2.957031 3.53125 -2.65625 C 3.84375 -2.363281 4 -1.972656 4 -1.484375 C 4 -1.015625 3.84375 -0.625 3.53125 -0.3125 C 3.21875 -0.0078125 2.835938 0.140625 2.390625 0.140625 Z M 2.390625 0.140625 "/></g></g></g><g fill="#000000" fill-opacity="1"><g transform="translate(237.386625, 194.428346)"><g><path d="M 1.84375 -13.71875 L 7.84375 -13.71875 C 9.300781 -13.71875 10.597656 -13.429688 11.734375 -12.859375 C 12.867188 -12.296875 13.75 -11.492188 14.375 -10.453125 C 15.007812 -9.410156 15.328125 -8.210938 15.328125 -6.859375 C 15.328125 -5.492188 15.007812 -4.289062 14.375 -3.25 C 13.75 -2.21875 12.867188 -1.414062 11.734375 -0.84375 C 10.597656 -0.28125 9.300781 0 7.84375 0 L 1.84375 0 Z M 7.71875 -2.15625 C 8.726562 -2.15625 9.613281 -2.347656 10.375 -2.734375 C 11.132812 -3.117188 11.71875 -3.664062 12.125 -4.375 C 12.539062 -5.09375 12.75 -5.921875 12.75 -6.859375 C 12.75 -7.796875 12.539062 -8.617188 12.125 -9.328125 C 11.71875 -10.046875 11.132812 -10.597656 10.375 -10.984375 C 9.613281 -11.367188 8.726562 -11.5625 7.71875 -11.5625 L 4.390625 -11.5625 L 4.390625 -2.15625 Z M 7.71875 -2.15625 "/></g></g></g><g fill="#000000" fill-opacity="1"><g transform="translate(261.900795, 194.428346)"><g><path d="M 12.125 -2.140625 L 12.125 0 L 1.84375 0 L 1.84375 -13.71875 L 11.859375 -13.71875 L 11.859375 -11.578125 L 4.390625 -11.578125 L 4.390625 -8.015625 L 11.015625 -8.015625 L 11.015625 -5.921875 L 4.390625 -5.921875 L 4.390625 -2.140625 Z M 12.125 -2.140625 "/></g></g></g><g fill="#000000" fill-opacity="1"><g transform="translate(283.358351, 194.428346)"><g><path d="M 14.375 -13.71875 L 8.40625 0 L 5.890625 0 L -0.09375 -13.71875 L 2.671875 -13.71875 L 7.234375 -3.140625 L 11.828125 -13.71875 Z M 14.375 -13.71875 "/></g></g></g></svg>